<svg width="380" height="378" viewBox="0 0 380 378" fill="none" xmlns="http://www.w3.org/2000/svg">
<path d="M111.318 319.135C111.318 319.135 121.96 338.155 139.998 333.234C140.677 333.048 141.397 333.188 141.975 333.581C147.037 337.012 156.587 339.785 169.549 334.477C170.248 334.19 171.048 334.26 171.677 334.678C182.037 341.546 196.589 343.916 209.444 333.606C209.832 333.294 210.355 333.214 210.818 333.4C217.651 336.147 221.721 335.981 230.149 332.751C231.614 332.187 232.635 331.971 233.289 332.026C235.347 332.197 239.669 335.246 248.283 332.861C245.305 341.647 222.491 348.51 222.491 348.51L147.772 354.492L108.233 338.713L111.318 319.135Z" fill="#6784CE"/>
<path d="M45.8113 232.33C22.6558 232.999 20.2708 248.034 20.2658 251.722C20.2557 255.848 21.7602 259.606 25.2873 260.577C29.5894 261.765 31.597 257.589 29.3479 256.059C25.9414 253.75 26.5553 251.676 28.2459 250.685C30.6359 249.292 42.6867 250.273 37.9469 269.956C36.2563 276.986 33.3228 277.957 32.402 281.046C32.7291 289.444 36.7795 288.815 45.5144 288.815C61.1124 288.815 72.348 275.481 72.348 259.883C72.338 244.29 61.4043 231.882 45.8113 232.33Z" fill="#6784CE"/>
<path d="M341.192 323.523C350.083 305.233 343.306 284.447 327.818 271.27C317.785 262.736 321.977 253.483 326.827 252.658C329.66 252.175 333.061 256.2 329.534 259.335C328.563 260.195 329.791 262.505 333.413 260.804C336.035 259.571 339.834 252.029 333.504 246.112C327.567 240.557 319.838 239.576 311.677 242.524C297.357 247.702 292.924 261.478 295.374 278.52C297.181 291.099 300.426 342.432 300.426 342.432L326.988 341.979C333.318 336.741 337.897 330.306 341.192 323.523Z" fill="#6784CE"/>
<path d="M325.619 291.033C327.964 295.079 333.851 293.645 332.226 289.821C329.63 283.692 335.154 282.092 337.142 283.441C342.782 287.26 345.303 300.936 329.584 307.185C321.659 310.335 304.29 310.581 285.251 306.893C277.286 316.976 283.998 364.49 330.968 363.73C380.393 362.935 386.698 309.167 374.884 286.772C367.538 272.849 347.753 264.054 333.061 268.738C325.307 271.204 319.672 280.769 325.619 291.033Z" fill="#6784CE"/>
<path d="M238.23 321.611C238.95 321.415 239.503 321.128 239.71 320.715C240.324 319.472 238.019 318.335 237.023 316.031C235.856 313.344 236.892 310.531 238.839 309.54C241.466 308.202 245.748 309.158 248.138 312.212C250.679 315.452 258.347 330.321 233.476 343.161C253.255 349.461 267.806 326.436 268.093 320.449C269.039 300.8 255.106 292.428 243.383 292.87C232.454 293.283 228.097 301.6 228.449 310.013C228.731 316.801 234.658 322.597 238.23 321.611Z" fill="#6784CE"/>
<path d="M89.4756 347.946C90.7788 347.946 92.4242 347.936 94.301 347.901L100.51 359.011C121.396 372.325 136.219 380.793 173.071 366.81C194.742 358.588 200.035 355.766 211.532 354.759C216.871 363.162 229.349 368.501 244.766 370.176L267.338 359.076C267.338 359.076 272.833 333.41 267.444 316.373C256.983 339.101 240.026 339.916 231.377 333.118C230.778 332.645 229.923 332.675 229.38 333.214C215.306 347.111 204.805 342.376 199.904 339.473C199.286 339.106 198.521 339.101 197.882 339.433C177.529 350.1 161.312 341.602 156.381 338.401C155.511 337.833 154.368 337.969 153.634 338.703C151.807 340.52 147.802 343.504 140.984 343.856C135.399 344.148 125.899 340.137 120.365 331.609C107.635 311.99 98.8093 282.203 105.783 265.096C108.319 258.877 113.371 256.608 117.431 256.688C122.654 256.794 124.954 260.799 120.878 261.71C118.473 262.248 118.76 266.56 123.575 266.49C129.472 266.404 133.165 260.572 133.165 255.757C133.165 240.622 120.214 231.882 100.475 231.882C77.4501 231.882 58.335 253.191 58.335 276.563C58.3299 299.93 66.456 347.946 89.4756 347.946Z" fill="#6784CE"/>
<path d="M123.505 373.789C136.371 378 151.013 378.372 173.695 370.201C189.524 364.5 198.088 356.943 211.538 354.759C214.174 358.905 218.547 362.301 224.152 364.888L253.431 360.148C253.431 360.148 268.923 335.624 259.333 344.238C250.674 352.012 239.061 347.327 233.601 345.511C232.751 345.229 231.82 345.38 231.091 345.903C221.088 353.078 211.538 354.764 202.365 350.809C201.233 350.321 199.98 350.215 199.049 351.031C187.582 361.054 175.713 356.807 167.3 351.514C166.278 350.87 164.965 351.026 164.07 351.831C147.35 366.905 127.651 355.765 122.539 350.135C121.915 349.451 120.979 349.154 120.068 349.325C104.309 352.218 97.2095 340.746 97.2095 340.746C91.6043 353.416 111.077 366.447 123.505 373.789Z" fill="#6784CE"/>
<path d="M246.578 350.11C238.004 355.987 222.446 360.299 216.212 360.269C230.471 374.886 268.998 376.536 289.512 371.202C318.213 363.736 326.776 346.507 326.761 327.689C326.716 275.954 278.558 272.341 274.78 258.575C273.039 252.225 275.846 249.583 278.392 248.32C281.316 246.871 284.833 248.507 284.888 249.9C284.959 251.802 281.522 251.807 283.072 254.952C283.862 256.562 286.066 256.799 288.415 255.807C292.245 254.192 294.338 250.046 293.679 245.946C291.792 234.172 282.267 226.201 269.084 226.201C254.1 226.201 240.61 236.441 237.194 251.048C232.68 270.339 252.827 284.417 261.109 303.286C270.89 326.698 256.233 343.488 246.578 350.11Z" fill="#6784CE"/>
<path d="M68.142 346.497C104.792 364.254 114.78 383.952 152.386 375.867C108.823 372.822 97.4914 335.805 103.409 319.92C105.572 314.103 110.81 309.791 116.606 308.745C119.037 308.307 122.851 308.347 124.738 310.964C125.583 312.141 125.065 313.545 123.56 314.285C122.282 314.914 120.999 315.638 121.095 317.681C121.236 320.725 126.519 322.114 130.237 318.068C133.704 314.3 131.701 304.367 126.116 299.678C118.961 293.675 108.053 292.176 97.8335 293.353C72.5044 296.266 53.7566 314.737 50.3301 341.561C55.1956 342.21 62.2802 343.659 68.142 346.497Z" fill="#6784CE"/>
<path d="M29.7203 331.493C33.9217 328.831 33.5191 324.494 33.1921 323.346C32.3317 320.322 28.1353 320.413 27.2648 323.432C27.0133 324.307 26.4095 325.032 25.217 325.339C21.1213 326.391 19.8432 316.207 25.2874 313.193C34.0424 308.347 45.8315 324.323 30.2587 341.999C46.2994 338.461 64.5139 343.574 79.2062 350.97C86.9297 342.487 92.4091 330.104 92.4091 317.414C92.4091 291.35 70.4914 270.469 47.6831 269.166C24.0094 267.813 -0.338585 283.421 0.00356455 306.853C0.355777 330.954 21.5741 336.655 29.7203 331.493Z" fill="#6784CE"/>
<path d="M199.472 149.696H152.296L153.231 153.389H200.136L199.472 149.696Z" fill="white"/>
<path d="M151.108 30.6427H85.6971C84.8618 30.6427 84.0719 30.2855 83.4731 29.6313C82.7687 28.8665 82.4165 27.7898 82.507 26.6879C82.658 24.8563 84.1121 23.4223 85.8178 23.4223H88.1978C89.1689 23.4223 90.1551 23.3368 90.789 22.6978C91.3979 22.089 91.6897 20.987 91.6847 19.3367C91.6646 14.3453 93.0382 10.4257 95.7653 7.69352C99.5239 3.91981 104.933 3.35627 107.821 3.35627C111.117 3.35627 112.656 5.56515 114.141 7.70359C115.801 10.0936 117.522 12.5591 121.834 12.5591H128.587C132.974 12.5591 135.726 14.6371 138.081 19.7241L138.147 19.87C139.525 22.8538 140.3 24.2827 142.776 24.2827H150.962C151.973 24.2827 152.824 24.6299 153.423 25.279C153.946 25.8526 154.238 26.6224 154.238 27.4527C154.233 29.0376 153.161 30.6427 151.108 30.6427ZM85.8128 24.4287C84.6304 24.4287 83.614 25.4551 83.5083 26.7684C83.4379 27.5935 83.6945 28.3885 84.2128 28.9521C84.6203 29.3949 85.1486 29.6364 85.6971 29.6364H151.108C152.562 29.6364 153.226 28.5043 153.226 27.4577C153.226 26.3809 152.527 25.2941 150.962 25.2941H142.766C139.535 25.2941 138.519 23.0903 137.226 20.2977L137.16 20.1518C134.972 15.417 132.567 13.5704 128.582 13.5704H121.829C116.994 13.5704 115.036 10.7628 113.311 8.28222C111.846 6.18404 110.583 4.36762 107.816 4.36762C105.084 4.36762 99.9768 4.89091 96.4748 8.40801C93.9439 10.949 92.6709 14.6271 92.691 19.3417C92.696 21.2738 92.3086 22.6022 91.5036 23.4173C90.6079 24.318 89.3299 24.4387 88.1978 24.4387H85.8128V24.4287Z" fill="black"/>
<path d="M333.796 189.315H241.541C239.775 189.315 238.301 188.676 237.284 187.463C236.399 186.411 235.911 184.972 235.911 183.418C235.911 180.308 237.953 177.002 241.742 177.002H248.339C248.968 177.002 249.42 176.831 249.727 176.484C250.774 175.281 250.316 171.991 249.742 167.825C249.581 166.667 249.415 165.465 249.264 164.192L249.239 163.96C248.656 159.07 247.438 148.896 257.788 145.187C261.758 143.763 263.725 143.22 267.293 142.229C268.219 141.972 269.255 141.685 270.473 141.343C273.673 140.443 276.028 140.417 278.106 141.268C280.642 142.304 282.689 144.684 284.38 148.544C286.594 153.605 288.41 155.165 291.339 154.501C311.299 149.967 314.484 158.139 317.569 166.043C317.76 166.526 317.946 167.01 318.137 167.493C320.12 172.429 322.52 176.997 326.651 176.997H333.604C337.549 176.997 339.617 180.147 339.617 183.262C339.607 186.18 337.791 189.315 333.796 189.315ZM241.747 178.009C238.577 178.009 236.922 180.731 236.922 183.418C236.922 184.736 237.324 185.943 238.059 186.819C238.879 187.795 240.087 188.308 241.546 188.308H333.801C337.101 188.308 338.606 185.697 338.606 183.267C338.606 180.736 337.041 178.009 333.599 178.009H326.646C321.916 178.009 319.31 173.138 317.196 167.87C317.005 167.387 316.814 166.899 316.623 166.416C313.558 158.561 310.665 151.145 291.555 155.487C287.58 156.393 285.507 153.656 283.454 148.951C280.153 141.404 275.987 140.84 270.739 142.314C269.522 142.657 268.485 142.943 267.559 143.2C263.896 144.216 262.06 144.725 258.125 146.133C248.53 149.575 249.682 159.211 250.236 163.84L250.266 164.071C250.417 165.334 250.583 166.532 250.744 167.684C251.378 172.278 251.841 175.593 250.492 177.138C249.994 177.712 249.269 178.004 248.344 178.004H241.747V178.009Z" fill="black"/>
<path d="M130.04 198.683H47.0237C45.8765 198.683 44.7646 198.2 43.9796 197.365C43.1846 196.515 42.7871 195.403 42.8626 194.235C43.0035 192.052 44.8853 190.341 47.1495 190.341H51.2352C52.8956 190.341 54.2441 188.992 54.2441 187.332V180.675C54.2441 176.484 57.1021 172.906 61.1928 171.981L72.7202 169.379C76.9669 168.418 81.3242 170.104 83.825 173.666C85.3797 175.885 87.9257 177.208 90.6378 177.208H102.341C106.985 177.208 111.172 180.142 112.762 184.499C114.035 187.991 117.386 190.341 121.104 190.341H129.92C132.184 190.341 134.066 192.052 134.207 194.235C134.282 195.403 133.884 196.515 133.089 197.365C132.3 198.2 131.188 198.683 130.04 198.683ZM47.1495 191.347C45.4136 191.347 43.9746 192.645 43.8689 194.301C43.8136 195.186 44.1105 196.032 44.7142 196.676C45.318 197.32 46.1382 197.677 47.0237 197.677H130.04C130.926 197.677 131.746 197.32 132.35 196.676C132.954 196.032 133.256 195.186 133.195 194.301C133.089 192.645 131.645 191.347 129.915 191.347H121.099C116.958 191.347 113.225 188.736 111.811 184.846C110.367 180.881 106.558 178.215 102.336 178.215H90.6327C87.5936 178.215 84.7407 176.73 82.9947 174.245C80.7305 171.014 76.7807 169.49 72.9365 170.36L61.4091 172.962C57.7813 173.782 55.2454 176.952 55.2454 180.675V187.332C55.2454 189.546 53.4441 191.347 51.2302 191.347H47.1495Z" fill="black"/>
<path d="M88.9575 336.474L88.0266 336.087C90.5625 330.034 91.901 323.578 91.901 317.414C91.901 305.238 87.0455 293.499 78.2351 284.357C69.8474 275.657 58.7024 270.303 47.653 269.669L47.7133 268.663C59.0093 269.312 70.4009 274.777 78.9597 283.657C87.9562 292.991 92.9073 304.976 92.9073 317.414C92.9123 323.704 91.5437 330.295 88.9575 336.474Z" fill="white"/>
<path d="M103.293 340.882C100.988 333.244 100.852 325.344 102.935 319.749C105.129 313.862 110.458 309.349 116.516 308.252L116.697 309.243C110.981 310.274 105.954 314.536 103.881 320.101C101.874 325.5 102.015 333.158 104.259 340.595L103.293 340.882Z" fill="white"/>
<path d="M121.406 297.172C115.258 293.992 106.905 292.815 97.8786 293.852C96.0672 294.058 94.2609 294.355 92.5099 294.722L92.3036 293.736C94.0848 293.358 95.9213 293.062 97.7679 292.85C106.986 291.789 115.545 293.006 121.869 296.277L121.406 297.172Z" fill="white"/>
<path d="M154.237 358.367L153.905 357.416C157.402 356.188 160.708 354.181 163.737 351.448C164.809 350.482 166.384 350.331 167.571 351.081C170.248 352.767 172.88 354.085 175.385 354.986L175.043 355.932C172.467 355.001 169.775 353.657 167.033 351.931C166.223 351.423 165.146 351.534 164.411 352.198C161.282 355.021 157.86 357.099 154.237 358.367Z" fill="white"/>
<path d="M190.843 356.47L190.521 355.519C193.368 354.553 196.126 352.917 198.722 350.648C199.693 349.803 201.057 349.692 202.566 350.346C204.72 351.272 206.924 351.896 209.122 352.188L208.992 353.184C206.702 352.877 204.403 352.233 202.169 351.272C201.369 350.925 200.232 350.668 199.386 351.408C196.689 353.758 193.811 355.463 190.843 356.47Z" fill="white"/>
<path d="M222.039 351.474L221.676 350.533C224.65 349.39 227.714 347.695 230.794 345.486C231.654 344.867 232.766 344.696 233.752 345.028C234.094 345.144 234.457 345.265 234.844 345.4C237.023 346.145 240.007 347.166 243.232 347.7L243.066 348.691C239.76 348.143 236.726 347.106 234.517 346.351C234.135 346.221 233.772 346.095 233.43 345.984C232.746 345.753 231.976 345.873 231.372 346.306C228.233 348.565 225.093 350.306 222.039 351.474Z" fill="white"/>
<path d="M132.441 357.219C127.495 355.136 123.892 352.364 122.166 350.467C121.668 349.919 120.918 349.672 120.158 349.813C117.074 350.376 114.085 350.437 111.283 349.989L111.444 348.998C114.131 349.425 117.004 349.37 119.977 348.827C121.079 348.62 122.181 348.988 122.916 349.798C124.571 351.619 128.043 354.281 132.833 356.299L132.441 357.219Z" fill="white"/>
<path d="M137.895 373.874C126.881 370.689 117.637 364.561 111.157 356.148L111.952 355.534C118.297 363.776 127.364 369.779 138.171 372.908L137.895 373.874Z" fill="white"/>
<path d="M230.668 357.884L230.366 356.923C236.786 354.9 242.442 352.334 246.296 349.692C249.204 347.7 256.42 342.069 260.681 332.786C264.923 323.543 264.913 313.681 260.646 303.477L261.577 303.09C265.954 313.565 265.959 323.699 261.597 333.209C257.235 342.724 249.843 348.49 246.869 350.528C242.93 353.219 237.179 355.831 230.668 357.884Z" fill="white"/>
<path d="M319.304 354.004L318.499 353.396C323.652 346.563 326.263 337.913 326.253 327.684C326.228 300.201 312.366 286.933 301.94 279.345L302.534 278.53C310.046 284 315.631 289.967 319.606 296.785C324.673 305.464 327.249 315.865 327.259 327.684C327.27 338.135 324.593 346.99 319.304 354.004Z" fill="white"/>
<path d="M325.182 291.285C321.71 285.298 321.76 278.953 325.317 273.881L326.143 274.46C322.822 279.199 322.787 285.147 326.052 290.782L325.182 291.285Z" fill="white"/>
<path d="M329.775 307.648L329.403 306.712C338.616 303.049 340.573 297.187 340.915 294.017C341.358 289.947 339.693 285.765 336.865 283.853C336.357 283.511 335.531 283.406 334.716 283.577C334.173 283.692 333.172 284.03 332.548 285.021L331.697 284.487C332.306 283.521 333.302 282.852 334.51 282.596C335.607 282.364 336.699 282.525 337.433 283.023C340.558 285.137 342.405 289.705 341.922 294.133C341.549 297.519 339.481 303.789 329.775 307.648Z" fill="white"/>
<path d="M60.1161 266.147L59.14 265.906C60.7602 259.355 63.8748 253.065 68.1567 247.722L68.9416 248.351C64.7503 253.579 61.6961 259.732 60.1161 266.147Z" fill="white"/>
<path d="M140.411 344.369C137.316 344.369 133.427 343.196 129.864 341.174L130.363 340.298C134 342.366 137.96 343.508 140.959 343.347C144.043 343.186 146.861 342.462 149.322 341.189L149.785 342.084C147.193 343.423 144.245 344.188 141.014 344.354C140.813 344.364 140.612 344.369 140.411 344.369Z" fill="white"/>
<path d="M169.639 344.308C166.132 343.579 162.731 342.391 159.536 340.781L159.989 339.88C163.108 341.45 166.424 342.608 169.841 343.322L169.639 344.308Z" fill="white"/>
<path d="M210.521 343.146C207.573 343.146 204.659 342.452 201.781 341.053L202.219 340.147C209.007 343.443 216.066 342.628 223.201 337.727L223.769 338.557C219.322 341.616 214.889 343.146 210.521 343.146Z" fill="white"/>
<path d="M242.477 337.36C241.365 337.36 240.253 337.264 239.146 337.073L239.317 336.082C245.531 337.169 251.961 335 257.421 329.978L258.1 330.718C253.375 335.065 247.931 337.36 242.477 337.36Z" fill="white"/>
<path d="M223.946 67.5342L219.88 63.8511L201.711 69.1292L196.951 66.2662L175.154 72.7721L170.168 69.9091L159.873 74.664L164.22 74.7194L169.614 73.1847L173.584 77.688L195.281 71.1821L195.306 71.2073L199.487 75.6854L217.39 70.4324L220.242 74.4778L240.465 68.8072C240.917 68.8072 241.129 68.2437 240.787 67.9468L238.552 65.9996C238.336 65.8084 238.326 65.4712 238.542 65.275L240.862 63.1064C241.189 62.8045 240.973 62.2611 240.53 62.2611L223.946 67.5342Z" fill="black"/>
<path d="M219.005 77.6881L216.388 72.3999L198.592 78.2667L195.024 72.5357L172.367 79.4139L168.855 75.1974L159.672 75.1823L159.587 77.4466L168.296 79.0818L172.457 85.5575L194.078 79.102L198.179 85.7538L214.849 80.5008L217.873 85.7538L237.924 79.9825C238.377 79.9825 238.588 79.419 238.246 79.1221L235.946 76.7321C235.73 76.5409 235.72 76.2038 235.936 76.0075L238.326 72.4401C238.653 72.1382 238.437 71.5948 237.994 71.5948L219.005 77.6881Z" fill="black"/>
<path d="M168.774 196.56H190.143V278.278H147.098C142.64 278.278 139.027 274.666 139.027 270.208V263.621C139.027 258.962 140.064 254.358 142.061 250.147L168.774 196.56Z" fill="black"/>
<path d="M235.614 275.033C235.614 275.033 228.137 270.092 224.952 267.999C220.877 265.312 219.639 261.805 219.005 258.298L189.288 93.0747H120.169L120.974 85.326H81.7525L76.6404 117.07C75.473 124.311 81.0631 130.872 88.3992 130.872H136.26C142.882 130.872 148.658 135.365 150.288 141.781L184.745 278.439H234.719C236.625 278.444 236.932 275.752 235.614 275.033Z" fill="#FDB024"/>
<path d="M167.033 95.9478H149.734V71.2174H154.932L167.033 95.9478Z" fill="#EC8C92"/>
<path d="M146.273 69.6527V84.7073C146.273 85.9048 147.244 86.881 148.446 86.881C154.384 86.881 158.942 82.0808 158.998 74.5284L159.134 74.4378L146.273 69.6527Z" fill="#F2BDBA"/>
<path d="M114.635 90.6886L110.52 116.292L111.513 116.452L115.629 90.8483L114.635 90.6886Z" fill="black"/>
<path d="M162.324 68.6612L148.306 58.0747C147.471 57.4508 146.278 58.0445 146.278 59.0911V69.6575L159.139 74.4375L162.158 72.4651C162.953 71.9469 163.416 71.006 163.225 70.0751C163.109 69.5317 162.807 69.0235 162.324 68.6612Z" fill="#6784CE"/>
<path d="M158.998 74.5282L146.273 71.1721V67.5896L159.873 73.9546L158.998 74.5282Z" fill="black"/>
<path d="M173.952 93.0747H120.169L120.969 85.326H114.584L113.401 93.0747L171.023 129.187L173.952 93.0747Z" fill="#6784CE"/>
<path d="M172.347 112.869L173.952 93.0748H140.763L172.347 112.869Z" fill="white"/>
<path d="M124.743 92.8483L115.303 97.8044C111.308 99.9026 106.372 98.2472 104.45 94.1615L99.8763 84.4505L121.427 77.0641C123.993 76.1836 126.675 78.0402 126.765 80.7472L127.027 88.9236C127.077 90.5639 126.192 92.0885 124.743 92.8483Z" fill="#EC8C92"/>
<path d="M119.283 68.1986V81.1802L148.97 75.8215C149.503 75.7058 149.88 75.2328 149.88 74.6844C149.88 74.141 149.503 73.668 148.97 73.5472L119.283 68.1986Z" fill="#FDB024"/>
<path d="M114.634 92.8735C113.22 92.964 109.698 93.2005 109.411 90.6545C107.273 93.5075 100.218 94.0307 99.514 90.6898C97.9794 93.4169 91.5087 94.6144 89.0684 90.6545C85.9287 93.0144 82.9298 93.0093 80.7914 92.8735C77.8227 92.6823 75.4076 90.4633 75.4076 87.4897V71.8564C75.4076 61.919 83.4632 58.0195 93.4006 58.0195H108.843C116.672 58.0195 123.022 60.2133 123.022 68.0425V84.4858C123.017 89.1199 119.258 92.5816 114.634 92.8735Z" fill="#F2BDBA"/>
<path d="M73.6114 88.0634C70.3157 88.5615 63.3972 89.4018 63.3972 89.4018V59.8411C63.3972 59.8411 70.3207 60.6009 73.6114 61.1795C78.3764 62.0248 82.3765 65.1041 82.3765 69.9446V79.2933C82.3765 84.1387 78.3965 87.3388 73.6114 88.0634Z" fill="#FDB024"/>
<path d="M24.3165 44.1524L24.0699 104.512L53.993 97.8246C61.6662 96.1189 67.1305 89.3162 67.1305 81.4517V67.1821C67.1305 59.3177 61.6712 52.5149 53.993 50.8092L24.3165 44.1524Z" fill="#6784CE"/>
<path d="M23.8185 104.527C29.2457 104.527 33.6453 91.0037 33.6453 74.3221C33.6453 57.6404 29.2457 44.1173 23.8185 44.1173C18.3914 44.1173 13.9918 57.6404 13.9918 74.3221C13.9918 91.0037 18.3914 104.527 23.8185 104.527Z" fill="#FDB024"/>
<path d="M226.643 35.956H180.453V6.95376H220.695C223.981 6.95376 226.643 9.61549 226.643 12.9011V35.956Z" fill="#12D1A8"/>
<path d="M226.597 17.2032V14.31C226.597 13.6609 226.074 13.1376 225.425 13.1376C224.776 13.1376 224.253 13.6609 224.253 14.31V40.253C224.253 45.4205 228.439 49.6068 233.607 49.6068H281.669C284.29 49.6068 285.417 46.2859 283.344 44.6858L269.789 34.2352C268.868 33.5257 268.778 32.1621 269.603 31.342L277.487 23.4625C278.624 22.3253 277.819 20.3882 276.214 20.3882H229.783C228.027 20.3882 226.597 18.9642 226.597 17.2032Z" fill="#12D1A8"/>
<path d="M187.029 278.449L181.067 3.8591H178.682V278.449H187.029Z" fill="#FFF3A1"/>
<path d="M178.682 322.773V349.274C181.867 349.621 185.203 349.103 188.569 347.583L188.026 322.778H178.682V322.773Z" fill="#FFF3A1"/>
<path d="M179.799 5.7159C178.219 5.7159 176.941 4.43788 176.941 2.85795C176.941 1.27803 178.219 0 179.799 0C181.379 0 182.657 1.27803 182.657 2.85795C182.657 4.43285 181.379 5.7159 179.799 5.7159Z" fill="#FFF3A1"/>
<path d="M163.843 114.856L161.886 114.298C159.486 113.614 158.097 111.113 158.776 108.713L160.799 101.613C161.715 98.403 165.056 96.5463 168.266 97.4621L168.759 97.603C171.159 98.2873 172.553 100.788 171.869 103.188L169.428 111.747C168.744 114.147 166.243 115.541 163.843 114.856Z" fill="#EC8C92"/>
<path d="M172.246 130.218H230.703C234.95 130.218 238.397 126.772 238.397 122.525V109.901C238.397 98.1014 228.832 88.5414 217.037 88.5414H180.523C170.596 88.5414 163.743 94.7504 165.131 102.449C162.902 104.512 163.043 109.483 165.096 111.923C163.436 114.726 164.055 119.833 166.731 121.091C165.363 123.818 167.084 130.218 172.246 130.218Z" fill="#F2BDBA"/>
<path d="M217.037 88.5414H191.401C197.037 88.5414 201.61 93.1101 201.61 98.7505V123.546C201.61 127.234 198.622 130.223 194.933 130.223H230.708C234.96 130.223 238.402 126.777 238.402 122.53V109.906C238.397 98.1014 228.831 88.5414 217.037 88.5414Z" fill="#FDB024"/>
<path d="M23.6576 100.149C27.7397 100.149 31.049 88.586 31.049 74.322C31.049 60.058 27.7397 48.4947 23.6576 48.4947C19.5754 48.4947 16.2661 60.058 16.2661 74.322C16.2661 88.586 19.5754 100.149 23.6576 100.149Z" fill="black"/>
<path d="M155.098 76.8025C154.877 76.5359 154.625 76.3346 154.338 76.1887C153.649 75.8314 152.814 75.8264 151.938 75.8214H151.863L151.873 74.8151H151.943C152.899 74.8251 153.891 74.8301 154.796 75.2981C155.204 75.5044 155.561 75.7962 155.868 76.1635L155.098 76.8025Z" fill="black"/>
<path d="M149.226 81.95C149.075 81.95 148.924 81.95 148.779 81.95H148.522L148.527 80.9437H148.784C150.041 80.9537 151.465 80.9638 152.145 80.1889L152.904 80.8531C152.019 81.8594 150.58 81.95 149.226 81.95Z" fill="black"/>
<path d="M162.077 92.5716H145.896V93.5779H162.077V92.5716Z" fill="black"/>
<path d="M160.623 96.8534H152.96V97.8597H160.623V96.8534Z" fill="black"/>
<path d="M179.798 6.21918C177.947 6.21918 176.437 4.7097 176.437 2.85806H177.444C177.444 4.15622 178.5 5.21285 179.798 5.21285C181.097 5.21285 182.153 4.15622 182.153 2.85806H183.159C183.159 4.7097 181.655 6.21918 179.798 6.21918Z" fill="black"/>
<path d="M179.185 327.925H178.178V344.625H179.185V327.925Z" fill="black"/>
<path d="M226.286 280.381C226.16 280.371 226.039 280.366 225.913 280.366H141.448C141.322 280.366 141.196 280.371 141.075 280.381C138.182 280.593 136.416 283.395 137.463 285.851C139.42 290.44 145.946 305.665 150.122 314.476C150.656 315.603 152.865 319.769 153.539 320.589C156.442 324.136 159.949 324.609 162.017 324.609H180.096H187.276H205.354C207.422 324.609 210.929 324.136 213.833 320.589C214.502 319.769 216.711 315.603 217.249 314.476C221.425 305.665 227.951 290.44 229.909 285.851C230.945 283.395 229.179 280.598 226.286 280.381Z" fill="#6784CE"/>
<path d="M205.349 324.111H162.012V325.118H205.349V324.111Z" fill="black"/>
<path d="M214.129 316.841H206.994V315.834H214.129V316.841ZM205.812 316.841H196.594V315.834H205.052L213.425 286.49L214.391 286.767L205.812 316.841ZM190.788 316.841H182.123V315.834H189.917L194.134 285.962L195.13 286.102L190.788 316.841ZM176.865 316.841H167.652V315.834H175.683L170.903 286.097L171.894 285.936L176.865 316.841ZM161.846 316.841H153.227V315.834H160.482L151.903 287.778L152.864 287.481L161.846 316.841Z" fill="black"/>
<path d="M23.5067 72.3143C23.5067 78.9058 24.2665 84.2493 22.3796 84.2493C20.4928 84.2493 18.9631 78.9058 18.9631 72.3143C18.9631 65.7229 20.4928 60.3794 22.3796 60.3794C24.2665 60.3743 23.5067 65.7229 23.5067 72.3143Z" fill="#12D1A8"/>
<path d="M224.756 15.4421H223.75V41.5964H224.756V15.4421Z" fill="black"/>
<path d="M166.792 101.13L166.238 100.29C169.65 98.036 173.298 95.8472 173.333 95.8221L173.851 96.6825C173.811 96.7126 170.188 98.8913 166.792 101.13Z" fill="black"/>
<path d="M167.295 110.539L166.767 109.684C170.289 107.52 174.188 105.231 174.229 105.211L174.737 106.076C174.702 106.097 170.807 108.381 167.295 110.539Z" fill="black"/>
<path d="M168.649 120.15L168.155 119.274C170.883 117.73 174.219 115.933 174.249 115.918L174.727 116.804C174.691 116.824 171.366 118.615 168.649 120.15Z" fill="black"/>
<path d="M110.096 89.7489L109.225 89.2508C109.824 88.2042 110.141 87.0117 110.141 85.8041V77.9699H111.147V85.8041C111.142 87.1828 110.78 88.5514 110.096 89.7489Z" fill="black"/>
<path d="M100.369 89.2254L99.4336 88.8581C99.7456 88.0531 99.9066 87.2027 99.9066 86.3323V77.9094H100.913V86.3323C100.913 87.3336 100.727 88.3047 100.369 89.2254Z" fill="black"/>
<path d="M89.7579 89.3866L88.8673 88.9136C89.3956 87.9174 89.6724 86.7953 89.6724 85.6632V78.2215H90.6787V85.6632C90.6837 86.9614 90.3667 88.2495 89.7579 89.3866Z" fill="black"/>
<path d="M179.089 20.1818H178.083V83.7311H179.089V20.1818Z" fill="black"/>
<path d="M179.089 131.617H178.083V195.166H179.089V131.617Z" fill="black"/>
</svg>
